<?xml version="1.0" standalone="no"?>
<!DOCTYPE svg PUBLIC "-//W3C//DTD SVG 20010904//EN"
 "http://www.w3.org/TR/2001/REC-SVG-20010904/DTD/svg10.dtd">
<svg version="1.0" xmlns="http://www.w3.org/2000/svg"
 width="512.000000pt" height="512.000000pt" viewBox="0 0 512.000000 512.000000"
 preserveAspectRatio="xMidYMid meet">
<metadata>
Created by potrace 1.14, written by Peter Selinger 2001-2017
</metadata>
<g transform="translate(0.000000,512.000000) scale(0.100000,-0.100000)"
fill="#000000" stroke="none">
<path d="M780 5050 c-130 -14 -216 -48 -341 -136 -92 -64 -152 -133 -224 -255
-105 -177 -147 -347 -147 -594 -1 -161 11 -259 53 -435 67 -286 183 -568 340
-830 29 -47 85 -141 126 -210 77 -129 203 -313 251 -365 16 -16 43 -52 62 -80
217 -321 933 -1037 1245 -1245 28 -18 56 -40 62 -48 23 -29 257 -191 383 -265
69 -41 163 -97 210 -126 262 -157 544 -273 830 -340 175 -42 274 -54 435 -54
246 0 416 43 594 148 122 72 191 132 255 224 108 154 139 253 138 436 -1 158
-31 257 -120 398 -45 71 -627 647 -697 690 -126 77 -235 107 -388 107 -157 -1
-270 -35 -400 -120 -137 -90 -244 -239 -278 -386 l-12 -52 -131 35 c-169 44
-327 112 -488 210 -204 123 -448 311 -523 403 -22 27 -66 79 -98 117 -83 96
-213 285 -259 373 -77 151 -133 323 -145 444 l-6 63 43 7 c74 12 222 90 290
153 103 95 188 243 219 383 14 60 14 236 0 300 -15 72 -53 165 -96 235 -43 70
-619 652 -690 697 -156 99 -315 137 -493 118z"/>
<path d="M3121 4793 c-51 -109 -101 -210 -111 -224 -18 -25 -18 -26 3 -52 12
-14 202 -179 422 -366 220 -187 475 -405 567 -483 92 -79 196 -168 232 -198
36 -30 133 -113 216 -185 83 -71 155 -131 160 -133 10 -4 480 200 480 208 0 3
-82 44 -182 91 l-183 84 -215 185 c-118 101 -220 189 -226 195 -6 5 -202 173
-436 373 l-424 363 -99 170 c-55 93 -102 169 -105 169 -3 0 -47 -89 -99 -197z"/>
<path d="M3002 3772 c-18 -20 -32 -40 -32 -44 0 -5 -7 -8 -15 -8 -8 0 -15 -4
-15 -9 0 -8 -49 -65 -132 -152 -22 -23 -25 -31 -14 -41 10 -11 106 -99 235
-217 14 -12 55 -49 91 -81 36 -32 79 -71 96 -86 16 -16 70 -65 118 -109 49
-44 94 -85 100 -90 6 -6 57 -52 112 -102 l102 -92 63 71 c35 40 79 88 97 107
18 20 47 51 63 68 l31 33 -74 69 c-40 37 -122 113 -183 167 -60 54 -119 108
-131 119 -27 26 -172 157 -201 183 -22 18 -201 182 -233 212 -44 41 -45 41
-78 2z"/>
</g>
</svg>
